<svg width="100" height="100" viewBox="0 0 100 100" fill="none" xmlns="http://www.w3.org/2000/svg">
<path d="M0 43.28C0 7.63892 7.63892 0 43.28 0H56.72C92.3611 0 100 7.63892 100 43.28V56.72C100 92.3611 92.3611 100 56.72 100H43.28C7.63892 100 0 92.3611 0 56.72V43.28Z" fill="#EE601A"/>
<path d="M63.3333 56.6667H56.6667V63.3333C56.6667 65.1014 55.9643 66.7971 54.714 68.0474C53.4638 69.2976 51.7681 70 50 70C48.2319 70 46.5362 69.2976 45.286 68.0474C44.0357 66.7971 43.3333 65.1014 43.3333 63.3333V56.6667H36.6667C34.8986 56.6667 33.2029 55.9643 31.9526 54.714C30.7024 53.4638 30 51.7681 30 50C30 48.2319 30.7024 46.5362 31.9526 45.286C33.2029 44.0357 34.8986 43.3333 36.6667 43.3333H43.3333V36.6667C43.3333 34.8986 44.0357 33.2029 45.286 31.9526C46.5362 30.7024 48.2319 30 50 30C51.7681 30 53.4638 30.7024 54.714 31.9526C55.9643 33.2029 56.6667 34.8986 56.6667 36.6667V43.3333H63.3333C65.1014 43.3333 66.7971 44.0357 68.0474 45.286C69.2976 46.5362 70 48.2319 70 50C70 51.7681 69.2976 53.4638 68.0474 54.714C66.7971 55.9643 65.1014 56.6667 63.3333 56.6667Z" fill="white"/>
</svg>
