<svg width="1096" height="221" viewBox="0 0 1096 221" fill="none" xmlns="http://www.w3.org/2000/svg">
<path d="M65.5076 123.198V173.815C65.5076 176.204 68.5866 177.17 69.9811 175.237C77.8512 164.288 95.8697 142.625 122.311 131.082C123.595 130.516 124.437 129.273 124.437 127.892V69.75C124.437 67.3475 122.048 65.663 119.77 66.4638C110.533 69.6947 89.5321 78.6694 74.5099 97.2402C68.5728 104.572 65.5076 113.795 65.5076 123.198Z" fill="#EE601A"/>
<path d="M58.9293 123.198V173.815C58.9293 176.204 55.8502 177.17 54.4557 175.237C46.5856 164.288 28.5672 142.625 2.12631 131.082C0.842241 130.516 0 129.273 0 127.878V69.75C0 67.3475 2.38865 65.663 4.66684 66.4638C13.9039 69.6947 34.9047 78.6694 49.9269 97.2402C55.8641 104.572 58.9293 113.795 58.9293 123.198Z" fill="#EE601A"/>
<path d="M190.715 90.9949H168.036V66.889H250.345V90.9949H227.666V176H190.715V90.9949ZM288.808 177.269C281.936 177.269 275.487 175.471 269.46 171.877C263.539 168.176 258.782 163.207 255.187 156.969C251.592 150.625 249.795 143.594 249.795 135.876C249.795 128.264 251.592 121.392 255.187 115.259C258.782 109.021 263.592 104.158 269.619 100.669C275.645 97.18 282.042 95.4355 288.808 95.4355C294.306 95.4355 299.381 96.9685 304.033 100.035C308.791 103.101 312.386 107.7 314.817 113.832V95.4355H348.122V176H314.817V161.251C309.531 171.929 300.861 177.269 288.808 177.269ZM299.117 152.211C303.346 152.211 306.941 150.731 309.901 147.771C312.967 144.705 314.606 141.11 314.817 136.986V135.718C314.606 131.489 312.914 127.894 309.742 124.933C306.676 121.973 303.135 120.493 299.117 120.493C294.676 120.493 290.87 122.079 287.698 125.251C284.632 128.317 283.099 132.017 283.099 136.352C283.099 140.793 284.685 144.546 287.857 147.612C291.029 150.678 294.782 152.211 299.117 152.211ZM392.097 177.269C383.111 177.269 376.132 174.467 371.163 168.863C366.3 163.154 363.868 155.383 363.868 145.55V71.4881L397.331 66.5718V143.172C397.331 146.132 398.018 148.299 399.393 149.674C400.873 150.943 403.41 151.577 407.005 151.577C409.648 151.577 412.239 150.943 414.776 149.674L415.886 171.877C408.802 175.471 400.873 177.269 392.097 177.269ZM465.197 177.269C456.422 177.269 448.598 175.524 441.725 172.035C434.959 168.44 429.672 163.577 425.866 157.445C422.06 151.207 420.157 144.176 420.157 136.352C420.157 128.317 422.113 121.18 426.025 114.942C429.937 108.704 435.223 103.894 441.884 100.51C448.545 97.1271 455.946 95.4355 464.087 95.4355C471.911 95.4355 478.572 97.18 484.069 100.669C489.673 104.052 493.849 108.704 496.598 114.625C499.347 120.44 500.721 126.995 500.721 134.29C500.721 136.194 500.616 137.568 500.404 138.414L452.827 144.599C454.096 148.299 456.157 150.995 459.012 152.687C461.867 154.273 465.62 155.066 470.272 155.066C477.461 155.066 485.232 153.216 493.585 149.515L497.55 170.766C487.717 175.101 476.933 177.269 465.197 177.269ZM476.14 124.616C474.448 117.955 470.43 114.625 464.087 114.625C460.281 114.625 457.267 116.052 455.047 118.907C452.827 121.762 451.664 125.462 451.558 130.008L476.14 124.616ZM501.451 66.889H537.134L547.443 136.511L558.068 85.4442H595.02L605.805 136.511L616.113 66.889H651.796L627.056 176H590.104L576.624 117.321L563.143 176H526.192L501.451 66.889ZM696.889 177.269C688.114 177.269 680.29 175.524 673.418 172.035C666.651 168.44 661.365 163.577 657.559 157.445C653.752 151.207 651.849 144.176 651.849 136.352C651.849 128.317 653.805 121.18 657.717 114.942C661.629 108.704 666.916 103.894 673.576 100.51C680.237 97.1271 687.638 95.4355 695.779 95.4355C703.603 95.4355 710.264 97.18 715.762 100.669C721.365 104.052 725.542 108.704 728.291 114.625C731.039 120.44 732.414 126.995 732.414 134.29C732.414 136.194 732.308 137.568 732.097 138.414L684.519 144.599C685.788 148.299 687.85 150.995 690.704 152.687C693.559 154.273 697.312 155.066 701.964 155.066C709.154 155.066 716.925 153.216 725.277 149.515L729.242 170.766C719.409 175.101 708.625 177.269 696.889 177.269ZM707.832 124.616C706.141 117.955 702.123 114.625 695.779 114.625C691.973 114.625 688.96 116.052 686.74 118.907C684.519 121.762 683.356 125.462 683.251 130.008L707.832 124.616ZM778.987 177.269C772.114 177.269 765.665 175.471 759.638 171.877C753.718 168.176 748.96 163.207 745.365 156.969C741.77 150.625 739.973 143.594 739.973 135.876C739.973 128.264 741.77 121.392 745.365 115.259C748.96 109.021 753.771 104.158 759.797 100.669C765.823 97.18 772.22 95.4355 778.987 95.4355C784.484 95.4355 789.559 96.9685 794.211 100.035C798.969 103.101 802.564 107.7 804.996 113.832V95.4355H838.3V176H804.996V161.251C799.709 171.929 791.04 177.269 778.987 177.269ZM789.295 152.211C793.524 152.211 797.119 150.731 800.079 147.771C803.145 144.705 804.784 141.11 804.996 136.986V135.718C804.784 131.489 803.092 127.894 799.921 124.933C796.855 121.973 793.313 120.493 789.295 120.493C784.854 120.493 781.048 122.079 777.876 125.251C774.81 128.317 773.277 132.017 773.277 136.352C773.277 140.793 774.863 144.546 778.035 147.612C781.207 150.678 784.96 152.211 789.295 152.211ZM846.592 96.5456H883.386L895.597 144.123L907.492 96.5456H936.514L911.298 176H872.76L846.592 96.5456ZM984.956 177.269C976.181 177.269 968.357 175.524 961.485 172.035C954.718 168.44 949.432 163.577 945.626 157.445C941.819 151.207 939.916 144.176 939.916 136.352C939.916 128.317 941.872 121.18 945.784 114.942C949.696 108.704 954.982 103.894 961.643 100.51C968.304 97.1271 975.705 95.4355 983.846 95.4355C991.67 95.4355 998.331 97.18 1003.83 100.669C1009.43 104.052 1013.61 108.704 1016.36 114.625C1019.11 120.44 1020.48 126.995 1020.48 134.29C1020.48 136.194 1020.38 137.568 1020.16 138.414L972.586 144.599C973.855 148.299 975.917 150.995 978.771 152.687C981.626 154.273 985.379 155.066 990.031 155.066C997.221 155.066 1004.99 153.216 1013.34 149.515L1017.31 170.766C1007.48 175.101 996.692 177.269 984.956 177.269ZM995.899 124.616C994.207 117.955 990.19 114.625 983.846 114.625C980.04 114.625 977.027 116.052 974.806 118.907C972.586 121.762 971.423 125.462 971.317 130.008L995.899 124.616ZM1032 97.6557H1065.47V113.832C1067.9 107.594 1071.18 102.995 1075.3 100.035C1079.53 96.9685 1084.45 95.4355 1090.05 95.4355L1094.65 121.286C1084.6 121.286 1077.2 122.396 1072.45 124.616C1067.79 126.731 1065.47 130.114 1065.47 134.766V176H1032V97.6557Z" fill="white"/>
</svg>
